<?xml version="1.0" encoding="UTF-8"?>
<svg version="1.1" xmlns="http://www.w3.org/2000/svg" width="640" height="640">
<path d="M0 0 C1.43704421 -0.00258686 2.87408771 -0.00560092 4.31113023 -0.0090034 C8.24692824 -0.01703933 12.18270798 -0.01886107 16.11851323 -0.01960087 C20.36895108 -0.02145745 24.61937959 -0.02900795 28.86981201 -0.03573608 C38.15957265 -0.04929708 47.44932895 -0.05534103 56.73909783 -0.05974674 C62.54651687 -0.06251372 68.35393424 -0.06675197 74.16135216 -0.07125092 C90.25892819 -0.08344212 106.3565029 -0.09374078 122.45408344 -0.09712601 C123.48368673 -0.09734557 124.51329002 -0.09756514 125.57409341 -0.09779136 C126.60608668 -0.09800964 127.63807995 -0.09822791 128.70134574 -0.09845281 C130.7923675 -0.09889626 132.88338926 -0.09934283 134.97441101 -0.09979248 C136.5302219 -0.10012463 136.5302219 -0.10012463 138.11746331 -0.10046348 C154.90417481 -0.10440706 171.69084279 -0.1218483 188.47753749 -0.145152 C205.73656362 -0.16891673 222.99556797 -0.18133023 240.25461072 -0.18249393 C249.93494519 -0.18340797 259.61522298 -0.18909146 269.29554176 -0.20731354 C277.54287201 -0.222784 285.79012807 -0.22779441 294.03747008 -0.21957543 C298.23831318 -0.21569297 302.4390072 -0.2164794 306.63983154 -0.23063278 C326.49629965 -0.29370329 345.93586728 -0.22462359 365.06596375 5.89044189 C366.3009259 6.27450195 366.3009259 6.27450195 367.56083679 6.6663208 C375.60491294 9.24334549 383.29131542 12.43963209 390.87846375 16.14044189 C391.51091003 16.44707764 392.14335632 16.75371338 392.79496765 17.06964111 C430.3773234 35.54946886 460.06098505 69.17159912 473.60112 108.88262939 C477.74014797 122.04965285 480.96302067 136.10113364 481.116745 149.92559814 C481.12653885 150.65541397 481.1363327 151.3852298 481.14642334 152.13716125 C481.32052391 168.48582249 481.17932461 184.24119468 476.87846375 200.14044189 C476.67479187 200.90340576 476.47112 201.66636963 476.26127625 202.45245361 C467.19565176 235.08450471 446.95156169 265.70652328 419.87846375 286.14044189 C418.89104187 286.91645752 417.90362 287.69247314 416.88627625 288.49200439 C395.87538934 304.6014252 370.0550344 315.29655227 343.87846375 319.14044189 C342.23597688 319.39821978 342.23597688 319.39821978 340.56030846 319.66120529 C334.31433795 320.42862063 328.03283458 320.28541841 321.75019836 320.28088379 C320.31244146 320.28347065 318.87468527 320.2864847 317.43693006 320.28988719 C313.49920143 320.29792311 309.56149107 320.29974486 305.62375522 320.30048466 C301.37129148 320.30234122 297.11883708 320.30989168 292.86637878 320.31661987 C283.57255319 320.33018053 274.27873193 320.33622467 264.98489809 320.34063053 C259.17547674 320.34339738 253.36605704 320.34763559 247.55663681 320.3521347 C231.45476956 320.36432551 215.35290364 320.37462448 199.25103188 320.3780098 C198.22117702 320.37822936 197.19132217 320.37844893 196.1302596 320.37867515 C195.09801087 320.37889343 194.06576214 320.3791117 193.00223315 320.3793366 C190.91068371 320.37978005 188.81913427 320.38022662 186.72758484 320.38067627 C185.69011527 320.3808977 184.6526457 320.38111913 183.58373766 320.38134727 C166.78988408 320.3852915 149.996074 320.40273494 133.2022372 320.42603579 C115.93756584 320.44979539 98.67291625 320.46221378 81.40822828 320.46337771 C71.7240133 320.464292 62.03985497 320.4699819 52.35565567 320.48819733 C44.10573499 320.50366078 35.85588846 320.50868224 27.60595603 320.50045922 C23.4032116 320.49657441 19.2006162 320.49737499 14.99789047 320.51151657 C-17.37048578 320.61410847 -17.37048578 320.61410847 -32.12153625 317.14044189 C-32.78632453 316.98636195 -33.4511128 316.832282 -34.13604617 316.67353296 C-60.79979876 310.44639672 -85.84766629 297.95391788 -105.89888 279.20684814 C-107.89692292 277.34926519 -109.95280823 275.62222938 -112.05903625 273.89044189 C-138.96211056 250.28935457 -154.81798002 213.03677033 -159.12153625 178.14044189 C-159.24440969 175.53705033 -159.33086482 172.95900754 -159.3598175 170.35528564 C-159.37450829 169.2605619 -159.37450829 169.2605619 -159.38949585 168.14372253 C-159.56359642 151.7950613 -159.42239712 136.03968911 -155.12153625 120.14044189 C-154.91786438 119.37747803 -154.7141925 118.61451416 -154.50434875 117.82843018 C-143.13290399 76.89649356 -115.41233604 42.10492927 -78.7660675 20.99981689 C-61.12986854 11.21702313 -42.13473923 4.07927388 -22.12153625 1.14044189 C-21.02640622 0.96858997 -19.93127619 0.79673805 -18.8029604 0.6196785 C-12.55932789 -0.14745294 -6.28028684 -0.00453525 0 0 Z M-23.74653625 60.82794189 C-25.71249033 63.28538449 -26.83911107 65.72235721 -27.99653625 68.64044189 C-29.73186175 72.85580746 -31.82448868 74.80129656 -35.3754425 77.54278564 C-40.99347359 82.68322125 -42.88996673 89.60900657 -43.37153625 96.95294189 C-43.31943332 101.52063244 -42.01052479 104.99919779 -40.12153625 109.14044189 C-39.46153625 109.47044189 -38.80153625 109.80044189 -38.12153625 110.14044189 C-37.13153625 107.50044189 -36.14153625 104.86044189 -35.12153625 102.14044189 C-31.12153625 103.14044189 -31.12153625 103.14044189 -28.89497375 103.92950439 C-22.60861148 106.12051665 -17.65795684 106.29474596 -11.12153625 105.14044189 C-4.299351 117.10889096 -0.86766119 128.69827571 1.87846375 142.14044189 C2.51484753 145.18528592 3.15659384 148.22884918 3.8054657 151.27105713 C4.21474427 153.19952491 4.61503894 155.12993237 5.00419617 157.06256104 C8.81747513 175.33568852 18.05213091 194.97089477 34.12846375 205.63262939 C36.59799464 207.33484176 38.19299439 208.64188179 39.87846375 211.14044189 C40.56263744 215.21950276 40.69950634 219.11780315 40.74565125 223.24200439 C40.93373815 228.7629083 42.31128228 233.34463384 44.9995575 238.14044189 C46.36331891 241.24375676 45.50236366 243.89616232 44.87846375 247.14044189 C38.21473257 249.80593436 32.5975289 249.58856889 25.75346375 248.07794189 C21.74246401 247.22323876 18.896396 247.02909893 14.87846375 248.14044189 C13.74344421 248.42081299 13.74344421 248.42081299 12.585495 248.70684814 C7.53375494 249.9879412 7.53375494 249.9879412 4.31596375 253.82794189 C4.17158875 254.59106689 4.02721375 255.35419189 3.87846375 256.14044189 C6.51846375 255.15044189 9.15846375 254.16044189 11.87846375 253.14044189 C11.87846375 254.13044189 11.87846375 255.12044189 11.87846375 256.14044189 C12.53846375 256.47044189 13.19846375 256.80044189 13.87846375 257.14044189 C15.00346375 259.20294189 15.00346375 259.20294189 15.87846375 261.14044189 C16.53846375 260.48044189 17.19846375 259.82044189 17.87846375 259.14044189 C19.69096375 259.45294189 19.69096375 259.45294189 21.87846375 260.14044189 C26.2677049 261.46846871 28.4400978 260.79152795 32.50346375 258.76544189 C39.80547052 255.18445775 45.90916033 254.14811604 53.87846375 256.14044189 C53.87846375 256.80044189 53.87846375 257.46044189 53.87846375 258.14044189 C52.92971375 258.07856689 51.98096375 258.01669189 51.00346375 257.95294189 C49.97221375 258.01481689 48.94096375 258.07669189 47.87846375 258.14044189 C47.21846375 259.13044189 46.55846375 260.12044189 45.87846375 261.14044189 C47.67283875 261.10950439 47.67283875 261.10950439 49.50346375 261.07794189 C52.2018663 261.05431315 54.16938024 261.21471845 56.81596375 261.89044189 C60.83076429 262.21818071 63.13662082 260.8144077 66.6870575 259.06622314 C69.4971185 257.87908507 71.86606115 257.83147753 74.87846375 258.14044189 C74.11533875 258.69731689 73.35221375 259.25419189 72.56596375 259.82794189 C69.89690872 262.12457064 68.44222496 264.01291947 66.87846375 267.14044189 C66.87846375 267.80044189 66.87846375 268.46044189 66.87846375 269.14044189 C73.81172415 268.18413011 78.96452505 265.64178272 84.74028015 261.79669189 C87.95846197 259.77325663 89.68513926 259.12883828 93.522995 259.35919189 C94.63029968 259.61700439 95.73760437 259.87481689 96.87846375 260.14044189 C102.47645008 261.02716293 106.50039772 261.48472708 111.87846375 259.14044189 C111.54846375 258.15044189 111.21846375 257.16044189 110.87846375 256.14044189 C107.10769474 254.25505739 102.5175318 254.72530617 98.3589325 254.51934814 C95.07816256 254.16218239 92.75206292 253.74565755 89.87846375 252.14044189 C88.56596375 248.51544189 88.56596375 248.51544189 87.87846375 245.14044189 C88.53846375 245.14044189 89.19846375 245.14044189 89.87846375 245.14044189 C93.74641263 237.90905919 94.01918751 232.19296858 93.87846375 224.14044189 C94.68283875 224.56003174 94.68283875 224.56003174 95.50346375 224.98809814 C99.55462338 227.0603196 103.5713363 229.053391 107.82377625 230.67950439 C115.96552006 233.85158751 121.15225935 236.49221274 126.28471375 243.89825439 C129.2177812 248.02467773 132.27591431 249.7843198 137.25346375 250.89044189 C138.11971375 250.97294189 138.98596375 251.05544189 139.87846375 251.14044189 C139.87846375 250.48044189 139.87846375 249.82044189 139.87846375 249.14044189 C141.48225715 249.08628002 143.08657781 249.04757552 144.69096375 249.01544189 C145.58428406 248.99223877 146.47760437 248.96903564 147.397995 248.94512939 C149.87846375 249.14044189 149.87846375 249.14044189 152.87846375 251.14044189 C155.16495223 251.38151516 155.16495223 251.38151516 157.56596375 251.26544189 C158.37420593 251.24739502 159.18244812 251.22934814 160.0151825 251.21075439 C160.63006531 251.18755127 161.24494812 251.16434814 161.87846375 251.14044189 C162.33927884 247.26994386 162.33927884 247.26994386 160.41752625 245.61309814 C159.78588562 245.14774658 159.154245 244.68239502 158.50346375 244.20294189 C156.14942046 242.46404984 155.03251659 241.54922246 153.98783875 238.77716064 C152.51095893 235.26697094 150.30004823 233.45460247 147.50346375 230.89044189 C142.72098907 226.29049271 140.04939588 222.37046982 137.87846375 216.14044189 C128.61242648 192.57027605 117.58438924 170.37545142 100.87846375 151.14044189 C99.99698669 150.11309937 99.99698669 150.11309937 99.09770203 149.06500244 C94.18009843 143.46394173 88.98014782 138.21605977 83.65971375 132.99981689 C82.91218842 132.26484482 82.16466309 131.52987274 81.39448547 130.77262878 C78.27567021 127.70795719 75.15617693 124.64435902 72.01664734 121.60089111 C59.24816415 109.2045894 50.24450109 97.42076222 42.37846375 81.39044189 C35.55259212 68.01240284 27.74674963 58.47868021 13.12846375 53.32794189 C-0.36962293 49.30924709 -13.52422161 50.36223881 -23.74653625 60.82794189 Z M285.48783875 85.06231689 C283.52074778 86.99946253 281.56456582 88.94661334 279.61576843 90.90216064 C277.63167746 92.8872266 275.62714657 94.84993114 273.62065125 96.81231689 C266.48326341 103.88316186 259.87230459 110.74702067 255.87846375 120.14044189 C255.87846375 121.13044189 255.87846375 122.12044189 255.87846375 123.14044189 C254.99416687 123.25645752 254.10987 123.37247314 253.19877625 123.49200439 C245.29371151 125.03581704 239.08351753 129.71098617 233.28471375 135.11309814 C232.77105255 135.59097275 232.25739136 136.06884735 231.72816467 136.561203 C226.42419289 141.51904913 221.20261654 146.56124596 216.0488739 151.67486572 C215.01226404 152.69984852 213.97117584 153.72032047 212.92582703 154.73638916 C204.95416279 162.48682427 198.21533784 170.22989114 194.56596375 180.95294189 C194.10770203 182.26198486 194.10770203 182.26198486 193.6401825 183.59747314 C189.24323678 198.27650729 192.01314338 212.83293081 199.02690125 226.15216064 C206.49763251 238.20935351 218.13760912 247.3518112 231.87846375 251.14044189 C247.53943088 254.33892513 262.40970999 253.24058456 276.31401062 244.63262939 C284.37792255 238.94645592 291.25644629 232.25386142 298.1960907 225.26885986 C300.19276446 223.26363347 302.20749827 221.27787878 304.22416687 219.29278564 C311.3951208 212.16058283 317.74759505 205.40356356 321.80741882 195.9854126 C323.64309411 192.82329768 327.15473182 191.88297984 330.37846375 190.45294189 C337.73481035 186.9532102 343.15493714 182.99240668 348.87846375 177.14044189 C350.31588866 175.70026396 351.75483315 174.26160191 353.19487 172.82403564 C355.5270035 170.49580489 357.85491954 168.16434773 360.1672821 165.81646729 C360.87634705 165.09837891 361.58541199 164.38029053 362.31596375 163.64044189 C362.95404968 162.99075439 363.59213562 162.34106689 364.2495575 161.67169189 C365.87846375 160.14044189 365.87846375 160.14044189 367.87846375 159.14044189 C367.87846375 158.48044189 367.87846375 157.82044189 367.87846375 157.14044189 C368.86846375 156.81044189 369.85846375 156.48044189 370.87846375 156.14044189 C382.73765566 143.25967165 386.7563598 128.60274424 386.0620575 111.41876221 C384.88455507 96.80645819 376.4479759 84.9123955 365.9058075 75.35137939 C339.43045583 54.14935239 307.73863174 63.49089564 285.48783875 85.06231689 Z " fill="#FFFFFF" transform="translate(159.1215362548828,159.85955810546875)"/>
<path d="M0 0 C6.28831702 5.33861519 9.620448 10.19337525 12.2265625 18.01171875 C13.00791115 28.57913906 12.73899245 37.30482205 5.96875 45.8671875 C0.23673362 52.48196459 -6.25621306 58.36275276 -12.734375 64.23046875 C-16.54664848 67.69227056 -20.18185048 71.32247529 -23.7734375 75.01171875 C-24.4334375 74.68171875 -25.0934375 74.35171875 -25.7734375 74.01171875 C-26.42326441 72.05337673 -26.99295005 70.06820008 -27.5234375 68.07421875 C-31.99771374 53.02288508 -41.18036691 42.63143689 -54.7734375 35.01171875 C-57.62567878 33.42423513 -57.62567878 33.42423513 -60.7734375 32.94921875 C-64.79535606 35.08586298 -66.39112374 39.86477746 -67.7734375 44.01171875 C-67.84084615 45.57290303 -67.85858206 47.13674395 -67.8359375 48.69921875 C-67.82691406 49.50746094 -67.81789063 50.31570313 -67.80859375 51.1484375 C-67.79699219 51.76332031 -67.78539062 52.37820313 -67.7734375 53.01171875 C-66.01 53.78515625 -66.01 53.78515625 -64.2109375 54.57421875 C-56.65286838 58.38669609 -51.79129545 64.14257302 -48.7734375 72.01171875 C-46.17070013 80.21901725 -47.02807563 89.38723208 -50.7734375 97.01171875 C-53.73614527 101.86259241 -57.18225481 105.75503274 -61.15625 109.765625 C-61.77055878 110.38896225 -62.38486755 111.0122995 -63.01779175 111.65452576 C-64.31448019 112.96565698 -65.61394215 114.27405044 -66.91601562 115.57983398 C-68.88406845 117.55976299 -70.83265529 119.55758331 -72.78125 121.55664062 C-81.80658307 130.69996787 -89.97435751 137.99421634 -103.4609375 138.26171875 C-112.6292952 138.12548758 -120.1070852 135.3483375 -126.7734375 129.01171875 C-133.86974545 121.38439456 -136.4331 113.35929751 -136.1171875 103 C-134.52753118 89.18082859 -123.4641874 80.51576073 -114.15625 71.20922852 C-112.50751643 69.55827626 -110.86698959 67.89943567 -109.2265625 66.24023438 C-108.17496766 65.18571055 -107.1229016 64.13165639 -106.0703125 63.078125 C-105.58278503 62.58341202 -105.09525757 62.08869904 -104.59295654 61.57899475 C-102.31370184 59.3150618 -100.87118531 58.04430135 -97.7734375 57.01171875 C-97.51691406 58.01589844 -97.26039063 59.02007812 -96.99609375 60.0546875 C-92.72329875 75.72096064 -85.1513159 87.03765227 -71.05859375 95.67578125 C-67.53810377 97.64247697 -67.53810377 97.64247697 -63.7734375 99.01171875 C-60.01938828 97.7989769 -58.45087675 95.61609627 -56.58984375 92.1640625 C-55.10315722 88.2446162 -54.94074564 84.16932609 -54.7734375 80.01171875 C-55.84271484 79.41037109 -55.84271484 79.41037109 -56.93359375 78.796875 C-65.35637396 73.79762053 -71.49009396 68.54379562 -74.7109375 59.07421875 C-77.02081832 49.71920144 -76.206502 41.61621706 -71.7734375 33.01171875 C-69.93676758 30.68261719 -69.93676758 30.68261719 -67.79296875 28.37109375 C-66.99205811 27.50613281 -66.19114746 26.64117187 -65.3659668 25.75 C-64.51043213 24.84636719 -63.65489746 23.94273437 -62.7734375 23.01171875 C-61.90952393 22.09777344 -61.04561035 21.18382812 -60.15551758 20.2421875 C-57.42755074 17.39052639 -54.66759439 14.57335922 -51.8984375 11.76171875 C-51.43969238 11.28412109 -50.98094727 10.80652344 -50.50830078 10.31445312 C-36.7124648 -4.03982043 -18.19090263 -13.04108372 0 0 Z " fill="#FFFFFF" transform="translate(509.7734375,251.98828125)"/>
<path d="M0 0 C2.52028254 3.098465 4.10584525 6.244928 5.75 9.875 C8.4254489 15.37378694 11.06503448 18.44682483 16 22 C15.52048204 26.31566167 14.29764982 28.2019941 11 31 C7.56167658 32.71916171 3.760081 32.5216689 0 32 C-1.35368596 30.68733482 -2.68799596 29.35432675 -4 28 C-6.68810455 27.72956695 -9.29176071 27.91263744 -12 28 C-12.66 27.34 -13.32 26.68 -14 26 C-14 24.68 -14 23.36 -14 22 C-12.39125 21.5359375 -12.39125 21.5359375 -10.75 21.0625 C-7.40979251 19.6251986 -6.19780477 18.16551191 -4.6875 14.875 C-3.16856984 10.91539575 -2.16832445 6.9154662 -1.39453125 2.75 C-1 1 -1 1 0 0 Z " fill="#FFFFFF" transform="translate(224,382)"/>
</svg>
